<svg width="180" height="180" viewBox="0 0 180 180" fill="none" xmlns="http://www.w3.org/2000/svg">
<g clip-path="url(#clip0_1975_20)">
<path d="M47.4054 42.5938C60.494 42.5938 72.3461 47.9005 80.9252 56.4793C81.2527 56.8068 81.5744 57.1395 81.8922 57.4763L68.252 71.1165C67.9409 70.7736 67.6218 70.4377 67.2943 70.1102C62.2052 65.0214 55.173 61.8734 47.4054 61.8734C39.6378 61.8734 32.6056 65.0214 27.5165 70.1102C22.4277 75.1993 19.2797 82.2315 19.2797 89.9991C19.2797 97.7667 22.4277 104.799 27.5165 109.888C32.6056 114.977 39.6378 118.125 47.4054 118.125C55.173 118.125 62.2052 114.977 67.2943 109.888C67.6183 109.564 67.9342 109.232 68.242 108.893L81.8819 122.533C81.5676 122.866 81.2491 123.195 80.9252 123.519C72.3461 132.098 60.494 137.405 47.4054 137.405C34.3161 137.405 22.4647 132.098 13.8856 123.519C5.3068 114.94 0 103.088 0 89.9991C0 76.9098 5.3068 65.0584 13.8856 56.4793C22.4647 47.9005 34.3161 42.5938 47.4054 42.5938Z" fill="#6C49FC"/>
<path fill-rule="evenodd" clip-rule="evenodd" d="M86.619 89.9982L76.2202 100.397L89.902 114.079L113.982 89.9985L89.902 65.918L76.2202 79.5994L86.619 89.9982Z" fill="#121728"/>
<path d="M132.595 42.5938C119.506 42.5938 107.654 47.9005 99.0749 56.4793C98.7474 56.8068 98.4257 57.1395 98.1079 57.4763L111.748 71.1165C112.059 70.7736 112.378 70.4377 112.706 70.1102C117.795 65.0214 124.827 61.8734 132.595 61.8734C140.362 61.8734 147.395 65.0214 152.484 70.1102C157.572 75.1993 160.72 82.2315 160.72 89.9991C160.72 97.7667 157.572 104.799 152.484 109.888C147.395 114.977 140.362 118.125 132.595 118.125C124.827 118.125 117.795 114.977 112.706 109.888C112.382 109.564 112.066 109.232 111.758 108.893L98.1182 122.533C98.4325 122.866 98.751 123.195 99.0749 123.519C107.654 132.098 119.506 137.405 132.595 137.405C145.684 137.405 157.535 132.098 166.115 123.519C174.693 114.94 180 103.088 180 89.9991C180 76.9098 174.693 65.0584 166.115 56.4793C157.535 47.9005 145.684 42.5938 132.595 42.5938Z" fill="#6C49FC"/>
</g>
<defs>
<clipPath id="clip0_1975_20">
<rect width="180" height="180" fill="white"/>
</clipPath>
</defs>
</svg>
