<svg width="192" height="192" viewBox="0 0 192 192" fill="none" xmlns="http://www.w3.org/2000/svg">
<g clip-path="url(#clip0_1975_25)">
<path d="M50.5658 45.4336C64.5269 45.4336 77.1692 51.0941 86.3202 60.2449C86.6695 60.5942 87.0127 60.949 87.3517 61.3083L72.8021 75.8579C72.4703 75.4921 72.1299 75.1338 71.7806 74.7845C66.3522 69.3564 58.8512 65.9985 50.5658 65.9985C42.2803 65.9985 34.7793 69.3564 29.3509 74.7845C23.9229 80.2129 20.565 87.7138 20.565 95.9993C20.565 104.285 23.9229 111.786 29.3509 117.214C34.7793 122.642 42.2803 126 50.5658 126C58.8512 126 66.3522 122.642 71.7806 117.214C72.1261 116.869 72.4631 116.515 72.7915 116.153L87.3407 130.702C87.0055 131.057 86.6658 131.408 86.3202 131.754C77.1692 140.905 64.5269 146.565 50.5658 146.565C36.6039 146.565 23.9624 140.905 14.8113 131.754C5.66059 122.603 0 109.96 0 95.9993C0 82.0374 5.66059 69.3959 14.8113 60.2449C23.9624 51.0941 36.6039 45.4336 50.5658 45.4336Z" fill="#6C49FC"/>
<path fill-rule="evenodd" clip-rule="evenodd" d="M92.3938 95.9981L81.3018 107.091L95.8956 121.684L121.581 95.9984L95.8956 70.3125L81.3018 84.906L92.3938 95.9981Z" fill="#121728"/>
<path d="M141.434 45.4336C127.473 45.4336 114.831 51.0941 105.68 60.2449C105.331 60.5942 104.987 60.949 104.648 61.3083L119.198 75.8579C119.53 75.4921 119.87 75.1338 120.22 74.7845C125.648 69.3564 133.149 65.9985 141.434 65.9985C149.72 65.9985 157.221 69.3564 162.649 74.7845C168.077 80.2129 171.435 87.7138 171.435 95.9993C171.435 104.285 168.077 111.786 162.649 117.214C157.221 122.642 149.72 126 141.434 126C133.149 126 125.648 122.642 120.22 117.214C119.874 116.869 119.537 116.515 119.209 116.153L104.659 130.702C104.995 131.057 105.334 131.408 105.68 131.754C114.831 140.905 127.473 146.565 141.434 146.565C155.396 146.565 168.038 140.905 177.189 131.754C186.34 122.603 192 109.96 192 95.9993C192 82.0374 186.34 69.3959 177.189 60.2449C168.038 51.0941 155.396 45.4336 141.434 45.4336Z" fill="#6C49FC"/>
</g>
<defs>
<clipPath id="clip0_1975_25">
<rect width="192" height="192" fill="white"/>
</clipPath>
</defs>
</svg>
