<svg width="32" height="32" viewBox="0 0 32 32" fill="none" xmlns="http://www.w3.org/2000/svg">
<path d="M8.42763 7.57227C10.7545 7.57227 12.8615 8.51569 14.3867 10.0408C14.4449 10.099 14.5021 10.1582 14.5586 10.2181L12.1337 12.643C12.0784 12.582 12.0217 12.5223 11.9634 12.4641C11.0587 11.5594 9.80854 10.9998 8.42763 10.9998C7.04671 10.9998 5.79655 11.5594 4.89182 12.4641C3.98714 13.3688 3.4275 14.619 3.4275 15.9999C3.4275 17.3808 3.98714 18.631 4.89182 19.5357C5.79655 20.4404 7.04671 21 8.42763 21C9.80854 21 11.0587 20.4404 11.9634 19.5357C12.021 19.4781 12.0772 19.4191 12.1319 19.3588L14.5568 21.7837C14.5009 21.8429 14.4443 21.9014 14.3867 21.959C12.8615 23.4841 10.7545 24.4275 8.42763 24.4275C6.10065 24.4275 3.99373 23.4841 2.46855 21.959C0.943432 20.4338 0 18.3267 0 15.9999C0 13.6729 0.943432 11.566 2.46855 10.0408C3.99373 8.51569 6.10065 7.57227 8.42763 7.57227Z" fill="#6C49FC"/>
<path fill-rule="evenodd" clip-rule="evenodd" d="M15.399 15.9997L13.5503 17.8484L15.9826 20.2807L20.2635 15.9997L15.9826 11.7188L13.5503 14.151L15.399 15.9997Z" fill="#121728"/>
<path d="M23.5724 7.57227C21.2455 7.57227 19.1385 8.51569 17.6133 10.0408C17.5551 10.099 17.4979 10.1582 17.4414 10.2181L19.8663 12.643C19.9216 12.582 19.9784 12.5223 20.0366 12.4641C20.9413 11.5594 22.1915 10.9998 23.5724 10.9998C24.9533 10.9998 26.2035 11.5594 27.1082 12.4641C28.0129 13.3688 28.5725 14.619 28.5725 15.9999C28.5725 17.3808 28.0129 18.631 27.1082 19.5357C26.2035 20.4404 24.9533 21 23.5724 21C22.1915 21 20.9413 20.4404 20.0366 19.5357C19.979 19.4781 19.9228 19.4191 19.8681 19.3588L17.4432 21.7837C17.4991 21.8429 17.5557 21.9014 17.6133 21.959C19.1385 23.4841 21.2455 24.4275 23.5724 24.4275C25.8994 24.4275 28.0063 23.4841 29.5315 21.959C31.0566 20.4338 32 18.3267 32 15.9999C32 13.6729 31.0566 11.566 29.5315 10.0408C28.0063 8.51569 25.8994 7.57227 23.5724 7.57227Z" fill="#6C49FC"/>
</svg>
