<svg width="512" height="512" viewBox="0 0 512 512" fill="none" xmlns="http://www.w3.org/2000/svg">
<g clip-path="url(#clip0_1975_30)">
<path d="M134.842 121.156C172.072 121.156 205.784 136.251 230.187 160.653C231.119 161.584 232.034 162.531 232.938 163.489L194.139 202.288C193.254 201.312 192.346 200.357 191.415 199.425C176.939 184.951 156.937 175.996 134.842 175.996C112.747 175.996 92.7448 184.951 78.2691 199.425C63.7943 213.901 54.8399 233.904 54.8399 255.998C54.8399 278.093 63.7943 298.095 78.2691 312.571C92.7448 327.046 112.747 336 134.842 336C156.937 336 176.939 327.046 191.415 312.571C192.336 311.65 193.235 310.706 194.111 309.741L232.909 348.539C232.015 349.486 231.109 350.422 230.187 351.343C205.784 375.745 172.072 390.84 134.842 390.84C97.6104 390.84 63.8996 375.745 39.4968 351.343C15.0949 326.941 0 293.228 0 255.998C0 218.766 15.0949 185.056 39.4968 160.653C63.8996 136.251 97.6104 121.156 134.842 121.156Z" fill="#6C49FC"/>
<path fill-rule="evenodd" clip-rule="evenodd" d="M246.384 255.995L216.805 285.575L255.722 324.492L324.217 255.996L255.722 187.5L216.805 226.416L246.384 255.995Z" fill="#121728"/>
<path d="M377.158 121.156C339.928 121.156 306.216 136.251 281.813 160.653C280.882 161.584 279.967 162.531 279.062 163.489L317.861 202.288C318.746 201.312 319.654 200.357 320.585 199.425C335.061 184.951 355.064 175.996 377.158 175.996C399.253 175.996 419.256 184.951 433.731 199.425C448.206 213.901 457.16 233.904 457.16 255.998C457.16 278.093 448.206 298.095 433.731 312.571C419.256 327.046 399.253 336 377.158 336C355.064 336 335.061 327.046 320.585 312.571C319.664 311.65 318.765 310.706 317.89 309.741L279.092 348.539C279.986 349.486 280.892 350.422 281.813 351.343C306.216 375.745 339.928 390.84 377.158 390.84C414.39 390.84 448.101 375.745 472.504 351.343C496.905 326.941 512 293.228 512 255.998C512 218.766 496.905 185.056 472.504 160.653C448.101 136.251 414.39 121.156 377.158 121.156Z" fill="#6C49FC"/>
</g>
<defs>
<clipPath id="clip0_1975_30">
<rect width="512" height="512" fill="white"/>
</clipPath>
</defs>
</svg>
