<svg width="40" height="40" viewBox="0 0 40 40" fill="none" xmlns="http://www.w3.org/2000/svg">
<circle cx="20" cy="20" r="20" fill="url(#paint0_linear_445_840)"/>
<path d="M15.8333 18.4375H16.875C16.8754 18.0232 17.0402 17.626 17.3331 17.3331C17.626 17.0402 18.0232 16.8754 18.4375 16.875V15.8333C17.7471 15.8342 17.0852 16.1088 16.597 16.597C16.1088 17.0852 15.8342 17.7471 15.8333 18.4375Z" fill="#18161A"/>
<path d="M13.75 18.4375H14.7917C14.7928 17.4709 15.1772 16.5442 15.8607 15.8607C16.5442 15.1772 17.4709 14.7928 18.4375 14.7917V13.75C17.1947 13.7514 16.0032 14.2457 15.1245 15.1245C14.2457 16.0032 13.7514 17.1947 13.75 18.4375Z" fill="#18161A"/>
<path d="M14.7911 26.7709H14.8797C25.1141 26.1823 26.5672 17.5469 26.7703 14.9115C26.8021 14.4983 26.6684 14.0895 26.3987 13.7749C26.129 13.4603 25.7454 13.2657 25.3323 13.2339C25.291 13.2308 25.2495 13.2292 25.2078 13.2292H22.463C22.2544 13.229 22.0505 13.2914 21.8778 13.4084C21.7051 13.5254 21.5715 13.6916 21.4943 13.8854L20.7026 15.8334C20.6264 16.0227 20.6075 16.2303 20.6482 16.4303C20.6889 16.6303 20.7875 16.8139 20.9318 16.9584L22.0411 18.0781C21.8686 19.0632 21.3972 19.9714 20.691 20.6795C19.9847 21.3875 19.0778 21.8613 18.0932 22.0365L16.963 20.9167C16.8164 20.7741 16.631 20.6778 16.4301 20.6398C16.2291 20.6018 16.0214 20.6238 15.8328 20.7031L13.8693 21.4896C13.6784 21.5692 13.5155 21.7039 13.4014 21.8764C13.2873 22.0489 13.2272 22.2515 13.2286 22.4584V25.2084C13.2286 25.6228 13.3933 26.0202 13.6863 26.3132C13.9793 26.6062 14.3767 26.7709 14.7911 26.7709ZM25.2078 14.2709C25.2762 14.2706 25.344 14.2839 25.4072 14.3099C25.4705 14.3359 25.528 14.3741 25.5765 14.4223C25.6251 14.4705 25.6636 14.5278 25.69 14.5909C25.7163 14.654 25.73 14.7217 25.7302 14.7901C25.7302 14.8047 25.7297 14.8191 25.7286 14.8334C25.4891 17.9167 23.9526 25.2084 14.8224 25.7292C14.6845 25.7374 14.5491 25.6906 14.4457 25.599C14.3424 25.5074 14.2797 25.3785 14.2713 25.2406L14.2703 25.2084V22.4584L16.2338 21.6719L17.7286 23.1563L17.9786 23.125C22.5099 22.5573 23.1245 18.0261 23.1245 17.9792L23.1557 17.7292L21.6766 16.2344L22.4578 14.2709H25.2078Z" fill="#18161A"/>
<path d="M25.2078 14.2709C25.2762 14.2706 25.344 14.2839 25.4072 14.3099C25.4705 14.3359 25.528 14.3741 25.5765 14.4223C25.6251 14.4705 25.6636 14.5278 25.69 14.5909C25.7163 14.654 25.73 14.7217 25.7302 14.7901C25.7302 14.8047 25.7297 14.8191 25.7286 14.8334C25.4891 17.9167 23.9526 25.2084 14.8224 25.7292C14.6845 25.7374 14.5491 25.6906 14.4457 25.599C14.3424 25.5074 14.2797 25.3785 14.2713 25.2406L14.2703 25.2084V22.4584L16.2338 21.6719L17.7286 23.1563L17.9786 23.125C22.5099 22.5573 23.1245 18.0261 23.1245 17.9792L23.1557 17.7292L21.6766 16.2344L22.4578 14.2709H25.2078Z" fill="#18161A"/>
<defs>
<linearGradient id="paint0_linear_445_840" x1="0" y1="0" x2="37.8747" y2="38.3304" gradientUnits="userSpaceOnUse">
<stop stop-color="#FFD901"/>
<stop offset="1" stop-color="#FDBD21"/>
</linearGradient>
</defs>
</svg>
