<svg width="30" height="30" viewBox="0 0 30 30" fill="none" xmlns="http://www.w3.org/2000/svg">
<g clip-path="url(#clip0_316_786)">
<path d="M15 0C11.0227 0 7.20469 1.58133 4.39453 4.39336C1.58148 7.20651 0.000779226 11.0217 0 15C0 18.9766 1.58203 22.7946 4.39453 25.6066C7.20469 28.4187 11.0227 30 15 30C18.9773 30 22.7953 28.4187 25.6055 25.6066C28.418 22.7946 30 18.9766 30 15C30 11.0234 28.418 7.20539 25.6055 4.39336C22.7953 1.58133 18.9773 0 15 0Z" fill="#1FAF38"/>
<path d="M11.3188 7.89684C11.0202 7.23426 10.706 7.22089 10.422 7.20927C10.1895 7.19927 9.92367 7.20002 9.6581 7.20002C9.39229 7.20002 8.9604 7.29986 8.59535 7.6978C8.22991 8.09613 7.2002 9.05869 7.2002 11.0164C7.2002 12.9743 8.62851 14.8664 8.82762 15.1321C9.02698 15.3974 11.585 19.5435 15.6363 21.1386C19.0033 22.4641 19.6885 22.2005 20.4192 22.134C21.1501 22.0678 22.7775 21.1717 23.1095 20.2425C23.4418 19.3134 23.4418 18.517 23.3422 18.3505C23.2426 18.1847 22.9767 18.0852 22.5781 17.8863C22.1794 17.6872 20.2199 16.7245 19.8545 16.5917C19.4891 16.459 19.2234 16.3928 18.9576 16.7912C18.6918 17.1891 17.9285 18.0852 17.6959 18.3505C17.4635 18.6166 17.2308 18.6497 16.8323 18.4506C16.4335 18.251 15.1499 17.8313 13.6269 16.4758C12.442 15.421 11.6421 14.1184 11.4096 13.72C11.177 13.3222 11.3846 13.1065 11.5845 12.9082C11.7636 12.7299 11.9832 12.4436 12.1827 12.2113C12.3815 11.9789 12.4478 11.8131 12.5807 11.5477C12.7137 11.2821 12.6471 11.0497 12.5476 10.8506C12.4478 10.6516 11.6732 8.68374 11.3188 7.89696" fill="white"/>
</g>
<defs>
<clipPath id="clip0_316_786">
<rect width="30" height="30" fill="white"/>
</clipPath>
</defs>
</svg>
